<svg xmlns="http://www.w3.org/2000/svg" width="1222.125" height="1848.761" viewBox="0 0 1222.125 1848.761"><defs><style>.a{fill:#532582;}.b{fill:#a7449f;}.c{fill:#ef8318;}.d{fill:#fabb20;}</style></defs><g transform="matrix(0.995, 0.105, -0.105, 0.995, 182.832, 0)"><path class="a" d="M917.806,27.264,672.44,113.574,572.494,817.767l-377.121-431.6L0,1576.464l122.683,131.755,131.755-4.542,181.747-663.3,368.023,708.735L1045.019,0Z"/><path class="b" d="M795.462,27.264l-99.17,34.871L450,817.767,99.549,553.049,0,1708.219l131.811-4.542,181.824-663.3,368.18,708.735L922.729,0Z" transform="translate(122.289)"/><path class="c" d="M681.734,1749.078l0-.011,0,0h0L313.6,1040.35,131.8,1703.636l-72.508,2.5L168.159,699.621,461.3,904.069,722.643,159,922.623,0,681.736,1749.066l0-.006h0v.005Zm-622.665-40.9H0l59.289-2.037-.22,2.034Z" transform="translate(121.804 0.016)"/><path class="d" d="M636.214,740.529,454.447,1098.285,209.038,831.393,0,1708.219l72.716-4.542,181.779-663.3,368.089,708.735L863.437,0Z" transform="translate(181.581)"/></g></svg>