<svg id="Calque_1" data-name="Calque 1" xmlns="http://www.w3.org/2000/svg" xmlns:xlink="http://www.w3.org/1999/xlink" viewBox="0 0 34.78 58.21"><defs><style>.cls-1{fill:none;}.cls-2{clip-path:url(#clip-path);}.cls-3{fill:#fabb20;}.cls-4{clip-path:url(#clip-path-2);}.cls-5{fill:#ef8318;}.cls-6{clip-path:url(#clip-path-3);}.cls-7{fill:#a7449f;}.cls-8{clip-path:url(#clip-path-4);}.cls-9{fill:#532582;}</style><clipPath id="clip-path" transform="translate(-0.79 -0.54)"><rect class="cls-1" x="0.79" y="0.54" width="34.78" height="56.73"/></clipPath><clipPath id="clip-path-2" transform="translate(-0.79 -0.54)"><rect class="cls-1" x="4.86" y="0.54" width="30.71" height="56.73"/></clipPath><clipPath id="clip-path-3" transform="translate(-0.79 -0.54)"><rect class="cls-1" x="6.83" y="0.54" width="28.73" height="56.73"/></clipPath><clipPath id="clip-path-4" transform="translate(-0.79 -0.54)"><rect class="cls-1" x="6.83" y="0.66" width="28.73" height="58.08"/></clipPath></defs><g class="cls-2"><path class="cls-3" d="M.79,52.89l6.5-39.53L19.84,27.7,23.17,4.31l8.16-2.86L35.56.54s-3.44,1.2-4.38,9.27S20.22,33,20.22,33l-5.11-3.4L8,46.67,4.87,57.27Z" transform="translate(-0.79 -0.54)"/></g><path class="cls-1" d="M4.86.54H35.57V57.27H4.86Z" transform="translate(-0.79 -0.54)"/><g class="cls-4"><path class="cls-5" d="M4.86,57.27,8.17,18.91,19.83,27.7,28,2.6l3.3-1.16,4.24-.9L30,6.44,21.14,31.76l-6-2.18L6.82,57.27Z" transform="translate(-0.79 -0.54)"/></g><path class="cls-1" d="M6.83.54H35.56V57.27H6.83Z" transform="translate(-0.79 -0.54)"/><g class="cls-6"><path class="cls-7" d="M6.83,57.27l3.63-33.5,9.76,6.79L28.91,5.82,35.56.54,26.75,51.22,15,33l-5.75,21Z" transform="translate(-0.79 -0.54)"/></g><path class="cls-1" d="M6.83.66H35.56V58.75H6.83Z" transform="translate(-0.79 -0.54)"/><g class="cls-8"><path class="cls-9" d="M6.83,57.39l7-29.12L22,37.13,28,25.25,35.56.66l-8,58.09L15.3,35.21l-6.05,22Z" transform="translate(-0.79 -0.54)"/></g></svg>