<svg xmlns="http://www.w3.org/2000/svg" xmlns:xlink="http://www.w3.org/1999/xlink" width="133.997" height="84.493" viewBox="0 0 133.997 84.493"><defs><style>.a{fill:none;}.b{fill:#fabb20;}.c{clip-path:url(#a);}.d{clip-path:url(#b);}.e{fill:#251a60;}.f{clip-path:url(#c);}.g{fill:#a7449f;}.h{fill:#ef8318;}.i{clip-path:url(#e);}</style><clipPath id="a"><path class="a" d="M0,0H9.123V14.721H0Z"/></clipPath><clipPath id="b"><path class="a" d="M0,0H50.474V84.493H0Z"/></clipPath><clipPath id="c"><path class="a" d="M0,0H44.549V84.493H0Z"/></clipPath><clipPath id="e"><path class="a" d="M0,0H41.7V84.493H0Z"/></clipPath></defs><path class="b" d="M5.213,15.027a5.684,5.684,0,0,1-3.795-1.207A3.972,3.972,0,0,1,0,10.658,3.988,3.988,0,0,1,1.591,7.3,8.15,8.15,0,0,1,6.134,5.942l2.875-.154A4.9,4.9,0,0,0,8.74,3.834a1.521,1.521,0,0,0-.958-.844A7.555,7.555,0,0,0,5.6,2.76a16.436,16.436,0,0,0-2.32.192,10.372,10.372,0,0,0-2.127.5V.767A13.626,13.626,0,0,1,3.661.21,19.1,19.1,0,0,1,6.172,0C8.538,0,10.26.445,11.29,1.322a5.4,5.4,0,0,1,1.553,4.313v9.316h-3.3l-.038-1.3A6.685,6.685,0,0,1,5.213,15.027ZM9.162,8.281l-2.607.191a4.721,4.721,0,0,0-2.185.575,1.517,1.517,0,0,0-.69,1.342,1.644,1.644,0,0,0,.652,1.38,2.913,2.913,0,0,0,1.8.5,6.221,6.221,0,0,0,1.514-.153,6.4,6.4,0,0,0,1.514-.69Z" transform="translate(49.277 53.054)"/><path class="b" d="M2.99.077l.077,1.188.422-.154L4.025.882A10.055,10.055,0,0,1,7.859,0a4.763,4.763,0,0,1,3.8,1.5A12.223,12.223,0,0,1,17.021,0a4.479,4.479,0,0,1,3.872,1.572,8.534,8.534,0,0,1,1.15,4.984V14.8H18.4V6.1a3.593,3.593,0,0,0-.594-2.2A2.055,2.055,0,0,0,16.063,3.1a5.482,5.482,0,0,0-1.457.212,16.836,16.836,0,0,0-1.955.709,11.009,11.009,0,0,1,.268,2.684V14.8H9.239V6.1a3.589,3.589,0,0,0-.594-2.2A2.1,2.1,0,0,0,6.862,3.1a5.364,5.364,0,0,0-1.246.173,20.343,20.343,0,0,0-1.974.633V14.8H0V.077Z" transform="translate(65.569 53.207)"/><path class="b" d="M.537,11.079a16.077,16.077,0,0,0,4.869,1.073,5.088,5.088,0,0,0,2.262-.345,1.137,1.137,0,0,0,.652-1.073.866.866,0,0,0-.613-.805,18.206,18.206,0,0,0-2.032-.767A20.556,20.556,0,0,1,2.837,8.127,4.253,4.253,0,0,1,0,4.025,3.4,3.4,0,0,1,1.533,1.054,8.418,8.418,0,0,1,6.249,0a16.625,16.625,0,0,1,3.8.537V3.642A15.525,15.525,0,0,0,6.287,2.99,6.2,6.2,0,0,0,4.025,3.3a.91.91,0,0,0-.575.882,1.134,1.134,0,0,0,.728,1A12.678,12.678,0,0,0,6.4,6.019l.767.23a18.37,18.37,0,0,1,2.607.939,3.731,3.731,0,0,1,1.5,1.285,4.029,4.029,0,0,1,.575,2.3,3.848,3.848,0,0,1-1.706,3.317A8.474,8.474,0,0,1,5.214,15.3a14.286,14.286,0,0,1-4.677-.882Z" transform="translate(91.062 53.054)"/><path class="b" d="M7.553,15.3a7.652,7.652,0,0,1-3.949-1A6.936,6.936,0,0,1,.94,11.578,8.075,8.075,0,0,1,0,7.667,7.581,7.581,0,0,1,2.07,2.051,7.535,7.535,0,0,1,7.59,0a7.429,7.429,0,0,1,5.5,2.07,7.585,7.585,0,0,1,2.051,5.559,8.381,8.381,0,0,1-.92,3.987,6.94,6.94,0,0,1-2.683,2.7A7.977,7.977,0,0,1,7.553,15.3Zm0-12.421A3.316,3.316,0,0,0,4.85,4.2,5.422,5.422,0,0,0,3.8,7.667,5.259,5.259,0,0,0,4.85,11.1a3.351,3.351,0,0,0,2.7,1.285,3.4,3.4,0,0,0,2.76-1.265,5.318,5.318,0,0,0,1.035-3.45A5.357,5.357,0,0,0,10.274,4.2,3.37,3.37,0,0,0,7.553,2.875Z" transform="translate(106.357 53.054)"/><g transform="translate(124.873 53.284)"><path class="a" d="M0,0H9.123V14.721H0Z" transform="translate(0 0)"/><g class="c" transform="translate(0 0)"><path class="b" d="M3.719,14.721H.077V3.8A2.967,2.967,0,0,1,2.185.9,12.765,12.765,0,0,1,7.13,0h.345A8.576,8.576,0,0,1,9.124.191V3.8a6.166,6.166,0,0,0-2.989-.69,7.654,7.654,0,0,0-2.415.422V14.72ZM.04,1.645h0L0,.153H2.032A4.228,4.228,0,0,0,.748.8,1.987,1.987,0,0,0,.04,1.645Z" transform="translate(0 0)"/></g></g><path class="a" d="M0,0H50.474V84.493H0Z"/><g class="d"><path class="e" d="M0,76.153l9.436-57.5L27.651,39.5,32.479,5.487l11.85-4.17L50.474,0,38.843,84.493,21.067,50.257,12.289,82.3l-6.364.219Z" transform="translate(0)"/></g><g transform="translate(5.925)"><path class="a" d="M0,0H44.549V84.493H0Z"/><g class="f"><path class="g" d="M0,82.518l4.807-55.8L21.726,39.5,33.616,3,38.4,1.317,44.549,0,32.917,84.493,15.142,50.257,6.364,82.3Z"/></g></g><g transform="translate(5.925)"><path class="a" d="M0,0H44.549V84.493H0Z"/><g class="f"><path class="h" d="M2.853,82.518,8.119,33.8l14.155,9.876L34.893,7.681,44.549,0,32.918,84.493,15.142,50.257,6.364,82.3,0,82.518Z"/></g></g><g transform="translate(8.778)"><path class="a" d="M0,0H41.7V84.493H0Z"/><g class="i"><path class="b" d="M0,82.518,10.095,40.161l11.85,12.893,8.778-17.282L41.7,0,30.065,84.493,12.289,50.257,3.512,82.3Z"/></g></g></svg>