<svg xmlns="http://www.w3.org/2000/svg" xmlns:xlink="http://www.w3.org/1999/xlink" width="95.927" height="60.483" viewBox="0 0 95.927 60.483"><defs><style>.a{fill:none;}.b{fill:#532582;}.c{clip-path:url(#a);}.d{clip-path:url(#b);}.e{fill:#fabb20;}.f{clip-path:url(#c);}.g{fill:#ef8318;}.h{fill:#a7449f;}.i{clip-path:url(#e);}</style><clipPath id="a"><path class="a" d="M0,0H6.531V10.538H0Z"/></clipPath><clipPath id="b"><path class="a" d="M0,0H36.134V60.483H0Z"/></clipPath><clipPath id="c"><path class="a" d="M0,0H31.892V60.483H0Z"/></clipPath><clipPath id="e"><path class="a" d="M0,0H29.85V60.483H0Z"/></clipPath></defs><path class="b" d="M3.732,10.757a4.07,4.07,0,0,1-2.717-.864A2.843,2.843,0,0,1,0,7.629a2.855,2.855,0,0,1,1.139-2.4,5.835,5.835,0,0,1,3.252-.975l2.058-.11a3.506,3.506,0,0,0-.192-1.4,1.089,1.089,0,0,0-.686-.6,5.409,5.409,0,0,0-1.564-.165,11.767,11.767,0,0,0-1.661.137A7.426,7.426,0,0,0,.823,2.47V.549a9.756,9.756,0,0,1,1.8-.4A13.678,13.678,0,0,1,4.419,0,5.666,5.666,0,0,1,8.082.947,3.867,3.867,0,0,1,9.194,4.034V10.7H6.833L6.806,9.77A4.786,4.786,0,0,1,3.732,10.757ZM6.559,5.928l-1.866.137a3.38,3.38,0,0,0-1.564.412,1.086,1.086,0,0,0-.494.961,1.177,1.177,0,0,0,.467.988,2.085,2.085,0,0,0,1.29.357,4.454,4.454,0,0,0,1.084-.11,4.585,4.585,0,0,0,1.084-.494Z" transform="translate(35.277 37.978)"/><path class="b" d="M2.141.055,2.2.906,2.5.8,2.882.631A7.2,7.2,0,0,1,5.626,0,3.41,3.41,0,0,1,8.343,1.07,8.751,8.751,0,0,1,12.185,0a3.207,3.207,0,0,1,2.772,1.125,6.108,6.108,0,0,1,.823,3.568v5.9H13.173V4.363a2.572,2.572,0,0,0-.425-1.578A1.471,1.471,0,0,0,11.5,2.222a3.924,3.924,0,0,0-1.043.152,12.053,12.053,0,0,0-1.4.507A7.88,7.88,0,0,1,9.249,4.8v5.79H6.614V4.363a2.569,2.569,0,0,0-.426-1.578,1.5,1.5,0,0,0-1.276-.563,3.84,3.84,0,0,0-.892.124A14.564,14.564,0,0,0,2.607,2.8v7.793H0V.055Z" transform="translate(46.941 38.088)"/><path class="b" d="M.384,7.931A11.51,11.51,0,0,0,3.87,8.7a3.643,3.643,0,0,0,1.619-.247.814.814,0,0,0,.467-.768.62.62,0,0,0-.439-.576,13.035,13.035,0,0,0-1.455-.549,14.717,14.717,0,0,1-2.031-.741A3.045,3.045,0,0,1,0,2.882,2.432,2.432,0,0,1,1.1.754,6.027,6.027,0,0,1,4.473,0,11.9,11.9,0,0,1,7.19.384V2.607A11.115,11.115,0,0,0,4.5,2.141a4.436,4.436,0,0,0-1.619.22.652.652,0,0,0-.412.631.811.811,0,0,0,.521.713,9.077,9.077,0,0,0,1.592.6l.549.165A13.152,13.152,0,0,1,7,5.145a2.671,2.671,0,0,1,1.07.92A2.884,2.884,0,0,1,8.48,7.711a2.755,2.755,0,0,1-1.221,2.374,6.067,6.067,0,0,1-3.526.864,10.228,10.228,0,0,1-3.348-.631Z" transform="translate(65.19 37.978)"/><path class="b" d="M5.407,10.95a5.478,5.478,0,0,1-2.827-.714A4.965,4.965,0,0,1,.673,8.288,5.78,5.78,0,0,1,0,5.489a5.426,5.426,0,0,1,1.482-4.02A5.394,5.394,0,0,1,5.434,0,5.319,5.319,0,0,1,9.372,1.482,5.43,5.43,0,0,1,10.84,5.461a6,6,0,0,1-.658,2.854A4.968,4.968,0,0,1,8.261,10.25,5.711,5.711,0,0,1,5.407,10.95Zm0-8.892A2.374,2.374,0,0,0,3.472,3a3.881,3.881,0,0,0-.754,2.484,3.765,3.765,0,0,0,.754,2.456,2.4,2.4,0,0,0,1.935.92,2.434,2.434,0,0,0,1.976-.906,3.807,3.807,0,0,0,.741-2.47A3.834,3.834,0,0,0,7.355,3,2.413,2.413,0,0,0,5.407,2.058Z" transform="translate(76.14 37.978)"/><g transform="translate(89.396 38.143)"><path class="a" d="M0,0H6.531V10.538H0Z" transform="translate(0 0)"/><g class="c" transform="translate(0 0)"><path class="b" d="M2.662,10.538H.055V2.717A2.124,2.124,0,0,1,1.564.644,9.139,9.139,0,0,1,5.1,0h.247a6.14,6.14,0,0,1,1.18.137v2.58a4.415,4.415,0,0,0-2.14-.494,5.48,5.48,0,0,0-1.729.3v8.012ZM.029,1.177h0L0,.109H1.454A3.027,3.027,0,0,0,.535.576,1.422,1.422,0,0,0,.029,1.177Z" transform="translate(0 0)"/></g></g><path class="a" d="M0,0H36.134V60.483H0Z"/><g class="d"><path class="e" d="M0,54.513l6.755-41.16L19.8,28.278l3.456-24.35L31.735.943,36.134,0,27.807,60.483,15.082,35.976,8.8,58.912l-4.556.157Z" transform="translate(0)"/></g><g transform="translate(4.242)"><path class="a" d="M0,0H31.892V60.483H0Z"/><g class="f"><path class="g" d="M0,59.069,3.441,19.124l12.112,9.154L24.065,2.149,27.493.943,31.892,0,23.565,60.483,10.84,35.976,4.556,58.912Z"/></g></g><g transform="translate(4.242)"><path class="a" d="M0,0H31.892V60.483H0Z"/><g class="f"><path class="h" d="M2.042,59.069l3.77-34.876,10.133,7.069L24.979,5.5,31.892,0,23.565,60.483,10.84,35.976,4.556,58.912,0,59.069Z"/></g></g><g transform="translate(6.284)"><path class="a" d="M0,0H29.85V60.483H0Z"/><g class="i"><path class="b" d="M0,59.069l7.227-30.32,8.484,9.229,6.284-12.371L29.85,0,21.523,60.483,8.8,35.976,2.514,58.912Z"/></g></g></svg>